<?xml version="1.0" encoding="UTF-8" standalone="no"?>
<svg
   width="100%"
   height="100%"
   viewBox="0 0 567 81"
   version="1.1"
   xml:space="preserve"
   style="fill-rule:evenodd;clip-rule:evenodd;stroke-linejoin:round;stroke-miterlimit:2;"
   id="svg6"
   sodipodi:docname="computingeducation.svg"
   inkscape:version="1.4.2 (f4327f4, 2025-05-13)"
   xmlns:inkscape="http://www.inkscape.org/namespaces/inkscape"
   xmlns:sodipodi="http://sodipodi.sourceforge.net/DTD/sodipodi-0.dtd"
   xmlns="http://www.w3.org/2000/svg"
   xmlns:svg="http://www.w3.org/2000/svg"><defs
   id="defs6" /><sodipodi:namedview
   id="namedview6"
   pagecolor="#ffffff"
   bordercolor="#000000"
   borderopacity="0.25"
   inkscape:showpageshadow="2"
   inkscape:pageopacity="0.0"
   inkscape:pagecheckerboard="0"
   inkscape:deskcolor="#d1d1d1"
   inkscape:zoom="1.0837316"
   inkscape:cx="440.1459"
   inkscape:cy="80.739552"
   inkscape:window-width="1920"
   inkscape:window-height="1009"
   inkscape:window-x="1912"
   inkscape:window-y="13"
   inkscape:window-maximized="1"
   inkscape:current-layer="CE_logo_-_alternative_version_1" />
    <g
   id="Ebene_2_1_">
        <g
   id="CE_logo_-_alternative_version_1">
            <path
   id="Computer_science_explained_"
   d="M351,76.8C349.5,76.9 348.1,76.3 347,75.3C346,74.1 345.4,72.5 345.5,70.9C345.4,69.3 345.9,67.8 346.9,66.5C347.9,65.4 349.4,64.8 350.9,64.9C351.6,64.9 352.2,64.9 352.9,65.1C353.2,65.1 353.4,65.3 353.5,65.5C353.7,65.7 353.8,66 353.7,66.2L353.7,66.3C353.7,66.5 353.6,66.7 353.4,66.8C353.2,66.9 353,67 352.8,66.9C352.2,66.8 351.7,66.7 351.1,66.7C350.2,66.6 349.2,67 348.6,67.8C348,68.7 347.6,69.8 347.7,70.9C347.6,72 348,73.1 348.6,74C349.2,74.7 350.1,75.1 351.1,75.1C351.7,75.1 352.3,75 352.9,74.9C353.1,74.9 353.3,74.9 353.5,75C353.7,75.1 353.8,75.3 353.8,75.5L353.8,75.6C353.8,75.9 353.7,76.1 353.6,76.3C353.4,76.5 353.2,76.6 353,76.7C352.4,76.8 351.7,76.9 351,76.8ZM362.5,75.7C360.8,77.2 358.3,77.2 356.6,75.7C355.2,73.8 355.2,71.3 356.6,69.4C358.3,67.9 360.8,67.9 362.5,69.4C363.9,71.3 363.9,73.9 362.5,75.7ZM361,70.5C360.7,70.1 360.1,69.8 359.6,69.8C359.1,69.8 358.5,70 358.2,70.5C357.8,71.1 357.7,71.8 357.7,72.6C357.6,73.3 357.8,74 358.2,74.7C358.5,75.1 359,75.4 359.6,75.4C360.1,75.4 360.7,75.2 361,74.7C361.4,74.1 361.5,73.3 361.5,72.6C361.5,71.9 361.3,71.1 361,70.5ZM366.2,76.7C366,76.7 365.7,76.6 365.6,76.4C365.4,76.2 365.3,76 365.3,75.8L365.3,69.4C365.3,69.2 365.4,68.9 365.6,68.8C365.8,68.6 366,68.5 366.2,68.5L366.4,68.5C366.6,68.5 366.9,68.6 367,68.7C367.2,68.9 367.3,69.1 367.3,69.3L367.3,69.4C367.8,68.7 368.6,68.3 369.4,68.3C370.2,68.2 371,68.7 371.3,69.5C371.8,68.8 372.6,68.3 373.5,68.3C374.2,68.2 374.9,68.5 375.4,69C375.9,69.7 376.1,70.6 376,71.4L376,75.7C376,75.9 375.9,76.2 375.7,76.3C375.5,76.5 375.3,76.6 375.1,76.6L375,76.6C374.8,76.6 374.5,76.5 374.4,76.3C374.2,76.1 374.1,75.9 374.1,75.7L374.1,71.7C374.1,71.2 374.1,70.7 373.9,70.2C373.7,69.9 373.4,69.8 373,69.8C372.7,69.8 372.4,70 372.2,70.2C372,70.4 371.8,70.7 371.8,71L371.8,75.7C371.8,75.9 371.7,76.2 371.5,76.3C371.3,76.5 371.1,76.6 370.9,76.6L370.6,76.6C370.4,76.6 370.1,76.5 370,76.3C369.8,76.1 369.7,75.9 369.7,75.7L369.7,71.7C369.7,71.2 369.7,70.7 369.5,70.2C369.3,69.9 369,69.8 368.6,69.8C368.3,69.8 368,70 367.8,70.2C367.6,70.4 367.4,70.7 367.4,71L367.4,75.7C367.4,76.2 367,76.6 366.5,76.6L366.2,76.7ZM379.4,80.2C379.2,80.2 378.9,80.1 378.8,79.9C378.6,79.7 378.5,79.5 378.5,79.3L378.5,69.4C378.5,69.2 378.6,68.9 378.8,68.8C379,68.6 379.2,68.5 379.4,68.5L379.6,68.5C379.8,68.5 380.1,68.6 380.2,68.8C380.4,69 380.5,69.2 380.5,69.4L380.5,69.5C380.8,69.1 381.2,68.8 381.6,68.6C382,68.4 382.5,68.3 382.9,68.3C383.8,68.3 384.7,68.7 385.3,69.4C385.9,70.3 386.2,71.4 386.2,72.6C386.3,73.7 385.9,74.8 385.3,75.7C384.7,76.4 383.9,76.8 383,76.8C382.1,76.8 381.2,76.4 380.6,75.8L380.6,79.2C380.6,79.4 380.5,79.7 380.3,79.8C380.1,80 379.9,80.1 379.7,80.1L379.4,80.2ZM380.5,71.5L380.5,73.7C380.5,74.1 380.7,74.5 381,74.8C381.3,75.1 381.8,75.3 382.3,75.3C382.8,75.3 383.3,75.1 383.6,74.6C384,74 384.1,73.3 384.1,72.6C384.1,70.8 383.5,69.9 382.3,69.9C381.8,69.9 381.4,70.1 381,70.4C380.7,70.7 380.5,71.1 380.5,71.5ZM390.7,76.8C390,76.9 389.2,76.6 388.7,76C388.2,75.2 388,74.3 388.1,73.4L388.1,69.3C388.1,68.8 388.5,68.4 389,68.4L389.3,68.4C389.8,68.4 390.2,68.8 390.2,69.3L390.2,73.2C390.2,73.7 390.3,74.3 390.5,74.7C390.7,75 391.1,75.2 391.5,75.1C392,75.1 392.4,74.9 392.7,74.5C393,74.2 393.2,73.8 393.3,73.3L393.3,69.2C393.3,68.7 393.7,68.3 394.2,68.3L394.5,68.3C394.7,68.3 395,68.4 395.1,68.6C395.3,68.8 395.4,69 395.4,69.2L395.4,75.6C395.4,75.8 395.3,76.1 395.1,76.2C394.9,76.4 394.7,76.5 394.5,76.5L394.3,76.5C394.1,76.5 393.8,76.4 393.7,76.2C393.5,76 393.4,75.8 393.4,75.6L393.4,75.5C392.6,76.5 391.6,76.9 390.7,76.8ZM397.9,70.3C397.7,70.3 397.5,70.2 397.4,70.1C397.3,70 397.2,69.8 397.2,69.5C397.2,69.1 397.5,68.7 397.9,68.7L398.7,68.7C398.8,68.7 398.8,68.7 398.8,68.6L398.8,66.6C398.8,66.4 398.9,66.1 399.1,66C399.3,65.8 399.5,65.7 399.7,65.7L400,65.7C400.5,65.7 400.9,66.1 400.9,66.6L400.9,68.6C400.9,68.7 400.9,68.7 401,68.7L402.8,68.7C403,68.7 403.2,68.8 403.3,68.9C403.4,69 403.5,69.2 403.5,69.4C403.5,69.6 403.4,69.8 403.3,70C403.2,70.1 403,70.2 402.8,70.2L401,70.2C400.9,70.2 400.9,70.2 400.9,70.3L400.9,73.5C400.9,74 400.9,74.4 401.1,74.8C401.3,75 401.7,75.1 402,75.1L402.6,75.1C402.8,75.1 403,75.1 403.1,75.3C403.3,75.4 403.3,75.6 403.3,75.8C403.3,76 403.2,76.2 403.1,76.4C403,76.6 402.8,76.7 402.5,76.7C402,76.7 401.7,76.8 401.5,76.8C400.7,76.9 399.9,76.7 399.4,76.1C398.9,75.4 398.7,74.6 398.8,73.8L398.8,70.4C398.8,70.3 398.8,70.3 398.7,70.3L397.9,70.3ZM409.6,76.8C408.4,76.9 407.3,76.5 406.4,75.7C405.6,74.8 405.2,73.7 405.3,72.5C405.2,71.4 405.6,70.2 406.3,69.3C407.1,68.5 408.1,68.1 409.2,68.2C411.5,68.2 412.7,69.5 412.8,72.2C412.8,72.4 412.7,72.7 412.5,72.8C412.3,73 412.1,73 411.8,73L407.5,73C407.4,73 407.4,73 407.4,73.1C407.4,73.7 407.7,74.2 408.1,74.6C408.6,75 409.2,75.1 409.8,75.1C410.3,75.1 410.9,75 411.4,74.9C411.6,74.8 411.8,74.9 411.9,75C412.1,75.1 412.1,75.3 412.1,75.5C412.1,75.7 412,76 411.9,76.1C411.8,76.3 411.6,76.4 411.3,76.4C410.8,76.8 410.2,76.9 409.6,76.8ZM409.2,69.8C408.7,69.8 408.3,69.9 408,70.2C407.7,70.6 407.5,71.1 407.5,71.6C407.5,71.7 407.5,71.7 407.6,71.7L410.7,71.7C410.8,71.7 410.8,71.7 410.8,71.6C410.6,70.4 410.1,69.8 409.2,69.8ZM415.5,76.7C415,76.7 414.6,76.3 414.6,75.8L414.6,69.3C414.6,68.8 415,68.4 415.5,68.4L415.8,68.4C416.3,68.4 416.7,68.8 416.7,69.3L416.7,70C417,69.6 417.4,69.2 417.9,69C418.4,68.7 419,68.6 419.5,68.5C419.7,68.5 419.9,68.6 420.1,68.7C420.3,68.9 420.3,69.1 420.3,69.3C420.3,69.5 420.2,69.7 420.1,69.9C419.9,70 419.7,70.1 419.5,70.2C417.6,70.3 416.7,71.3 416.7,73L416.7,75.8C416.7,76.3 416.3,76.7 415.8,76.7L415.5,76.7ZM429.9,73.4C429,73.3 428.2,72.9 427.5,72.4C427,72 426.8,71.4 426.8,70.8C426.8,70.1 427.1,69.4 427.7,69C428.4,68.5 429.3,68.3 430.2,68.4C430.9,68.4 431.6,68.5 432.3,68.6C432.5,68.6 432.7,68.8 432.9,68.9C433,69.1 433.1,69.3 433.1,69.5C433.1,69.7 433,69.9 432.9,70C432.7,70.1 432.6,70.2 432.4,70.1C431.8,69.9 431.2,69.9 430.5,69.9C429.6,69.9 429.1,70.2 429.1,70.7C429.1,70.9 429.2,71.2 429.4,71.3C429.7,71.5 430,71.6 430.3,71.7C431.2,71.8 432.1,72.2 432.8,72.7C433.3,73.2 433.5,73.8 433.5,74.5C433.5,75.2 433.2,75.9 432.6,76.3C431.9,76.8 431,77 430.1,76.9C429.4,76.9 428.6,76.8 427.9,76.7C427.7,76.7 427.5,76.5 427.3,76.3C427.2,76.1 427.1,75.9 427.1,75.6C427.1,75.4 427.2,75.2 427.3,75.1C427.5,75 427.6,75 427.8,75C428.4,75.2 429.1,75.3 429.8,75.3C430.8,75.3 431.2,75 431.2,74.4C431.2,74.2 431.1,73.9 430.9,73.8C430.6,73.6 430.2,73.5 429.9,73.4ZM438.9,76.9C437.8,77 436.7,76.6 435.9,75.8C435.1,74.9 434.8,73.8 434.8,72.6C434.7,71.5 435.1,70.3 435.8,69.4C436.6,68.6 437.6,68.2 438.7,68.3C439.2,68.3 439.8,68.3 440.3,68.4C440.5,68.4 440.8,68.5 440.9,68.7C441.1,68.9 441.1,69.1 441.1,69.4C441.1,69.6 441,69.8 440.9,69.9C440.7,70 440.5,70.1 440.3,70C439.8,69.9 439.4,69.9 438.9,69.9C438.3,69.9 437.8,70.1 437.4,70.5C437,71.1 436.9,71.8 436.9,72.5C436.8,73.2 437,73.9 437.4,74.5C437.8,74.9 438.4,75.2 439,75.1C439.5,75.1 439.9,75.1 440.3,75C440.5,75 440.7,75 440.8,75.1C441,75.2 441,75.4 441,75.6C441,75.8 440.9,76.1 440.8,76.3C440.6,76.5 440.4,76.6 440.2,76.6C439.9,76.8 439.4,76.8 438.9,76.9ZM444.9,66.8C444.4,66.8 444,66.4 444,65.9L444,65.8C444,65.6 444.1,65.3 444.3,65.2C444.5,65 444.7,64.9 444.9,64.9L445.3,64.9C445.5,64.9 445.8,65 445.9,65.2C446.1,65.4 446.2,65.6 446.2,65.8L446.2,65.9C446.2,66.1 446.1,66.4 445.9,66.5C445.7,66.7 445.5,66.8 445.3,66.8L444.9,66.8ZM444.9,76.8C444.4,76.8 444,76.4 444,75.9L444,69.4C444,68.9 444.4,68.5 444.9,68.5L445.3,68.5C445.5,68.5 445.8,68.6 445.9,68.8C446.1,69 446.2,69.2 446.2,69.4L446.2,75.8C446.2,76 446.1,76.3 445.9,76.4C445.7,76.6 445.5,76.7 445.3,76.7L444.9,76.8ZM452.8,76.9C451.6,77 450.5,76.6 449.6,75.8C448.8,74.9 448.4,73.8 448.5,72.6C448.4,71.5 448.8,70.3 449.5,69.4C450.3,68.6 451.3,68.2 452.4,68.3C454.7,68.3 455.9,69.6 456,72.3C456,72.5 455.9,72.8 455.7,72.9C455.5,73.1 455.3,73.1 455,73.1L450.7,73.1C450.6,73.1 450.6,73.1 450.6,73.2C450.6,73.8 450.9,74.3 451.3,74.7C451.8,75.1 452.4,75.2 453,75.2C453.5,75.2 454.1,75.1 454.6,75C454.8,74.9 455,75 455.1,75.1C455.3,75.2 455.4,75.4 455.3,75.6C455.3,75.8 455.2,76.1 455.1,76.2C455,76.4 454.8,76.5 454.5,76.5C453.9,76.6 453.3,76.6 452.7,76.6L452.8,76.9ZM452.4,69.9C451.9,69.9 451.5,70 451.2,70.3C450.9,70.7 450.7,71.2 450.7,71.7C450.7,71.8 450.7,71.8 450.8,71.8L453.9,71.8C454,71.8 454,71.8 454,71.7C454,70.3 453.5,69.7 452.5,69.7L452.4,69.9ZM458.7,76.8C458.2,76.8 457.8,76.4 457.8,75.9L457.8,69.3C457.8,68.8 458.2,68.4 458.7,68.4L458.9,68.4C459.1,68.4 459.4,68.5 459.5,68.7C459.7,68.9 459.8,69.1 459.8,69.3L459.8,69.4C460.4,68.7 461.3,68.2 462.3,68.2C463.1,68.1 463.9,68.4 464.4,69C464.9,69.8 465.1,70.8 465.1,71.7L465.1,75.7C465.1,76.2 464.7,76.6 464.2,76.6L464,76.6C463.8,76.6 463.5,76.5 463.4,76.3C463.2,76.1 463.1,75.9 463.1,75.7L463.1,72C463.2,71.4 463,70.9 462.8,70.4C462.5,70.1 462.1,69.9 461.7,70C461.2,70 460.8,70.2 460.5,70.6C460.2,70.9 460,71.3 460,71.8L460,75.9C460,76.4 459.6,76.8 459.1,76.8L458.7,76.8ZM470.9,77C469.8,77.1 468.7,76.7 467.9,75.9C467.1,75 466.8,73.9 466.8,72.7C466.7,71.6 467.1,70.4 467.8,69.5C468.6,68.7 469.6,68.3 470.7,68.4C471.2,68.4 471.8,68.4 472.3,68.5C472.5,68.5 472.8,68.6 472.9,68.8C473.1,69 473.1,69.2 473.1,69.5C473.1,69.7 473,69.9 472.9,70C472.7,70.1 472.5,70.2 472.3,70.1C471.8,70 471.4,70 470.9,70C470.3,70 469.8,70.2 469.4,70.6C469,71.2 468.9,71.9 468.9,72.6C468.8,73.3 469,74 469.4,74.6C469.8,75 470.4,75.3 471,75.2C471.5,75.2 471.9,75.2 472.3,75.1C472.5,75.1 472.7,75.1 472.8,75.2C473,75.3 473,75.5 473,75.7C473,75.9 472.9,76.2 472.8,76.4C472.6,76.6 472.4,76.7 472.2,76.7C471.7,76.8 471.2,76.8 470.6,76.8L470.9,77ZM479.3,77C478.1,77.1 477,76.7 476.1,75.9C475.3,75 474.9,73.8 475,72.6C474.9,71.5 475.3,70.3 476,69.4C476.8,68.6 477.8,68.2 478.9,68.3C481.2,68.3 482.4,69.6 482.5,72.3C482.5,72.5 482.4,72.8 482.2,72.9C482,73.1 481.8,73.2 481.5,73.1L477.2,73.1C477.1,73.1 477.1,73.1 477.1,73.2C477.1,73.8 477.4,74.3 477.8,74.7C478.3,75.1 478.9,75.2 479.5,75.2C480,75.2 480.6,75.1 481.1,75C481.3,74.9 481.5,75 481.6,75.1C481.8,75.2 481.9,75.4 481.8,75.6C481.8,75.8 481.7,76.1 481.6,76.2C481.5,76.4 481.3,76.5 481,76.5C480.4,76.6 479.8,76.7 479.2,76.7L479.3,77ZM478.9,70C478.4,70 478,70.1 477.7,70.4C477.4,70.8 477.2,71.3 477.2,71.8C477.2,71.9 477.2,71.9 477.3,71.9L480.4,71.9C480.5,71.9 480.5,71.9 480.5,71.8C480.5,70.4 480,69.7 479,69.7L478.9,70ZM492.7,77C491.5,77.1 490.4,76.7 489.5,75.9C488.7,75 488.3,73.9 488.4,72.7C488.3,71.6 488.7,70.4 489.4,69.5C490.2,68.7 491.2,68.3 492.3,68.4C494.6,68.4 495.8,69.7 495.9,72.4C495.9,72.6 495.8,72.9 495.6,73C495.4,73.2 495.2,73.2 494.9,73.2L490.6,73.2C490.5,73.2 490.5,73.2 490.5,73.3C490.5,73.9 490.8,74.4 491.2,74.8C491.7,75.2 492.3,75.3 492.9,75.3C493.4,75.3 494,75.2 494.5,75.1C494.7,75 494.9,75.1 495,75.2C495.2,75.3 495.2,75.5 495.2,75.7C495.2,75.9 495.1,76.2 495,76.3C494.9,76.5 494.7,76.6 494.4,76.6C493.8,76.7 493.2,76.7 492.6,76.6L492.7,77ZM492.3,70C491.8,70 491.4,70.1 491.1,70.4C490.8,70.8 490.6,71.3 490.6,71.8C490.6,71.9 490.6,71.9 490.7,71.9L493.8,71.9C493.9,71.9 493.9,71.9 493.9,71.8C493.9,70.3 493.3,69.7 492.3,69.7L492.3,70ZM497.6,76.9C497.4,76.9 497.2,76.8 497.2,76.6C497.1,76.4 497.1,76.3 497.2,76.1L499.2,72.8C499.3,72.7 499.3,72.6 499.2,72.6L497.3,69.4C497.2,69.2 497.2,69 497.3,68.9C497.4,68.7 497.6,68.6 497.7,68.7L498.2,68.7C498.7,68.7 499.3,69 499.5,69.5L500.6,71.6L501.7,69.5C501.8,69.3 502,69.1 502.2,68.9C502.4,68.8 502.7,68.7 503,68.7L503.4,68.7C503.6,68.7 503.8,68.8 503.8,68.9C503.9,69.1 503.9,69.3 503.8,69.4L501.9,72.6C501.8,72.7 501.8,72.8 501.9,72.8L503.9,76.1C504,76.3 504,76.4 503.9,76.6C503.8,76.8 503.6,76.9 503.5,76.9L503,76.9C502.7,76.9 502.5,76.8 502.2,76.7C502,76.6 501.8,76.4 501.7,76.1L500.6,73.9L499.4,76.1C499.3,76.3 499.1,76.5 498.9,76.7C498.7,76.8 498.4,76.9 498.1,76.9L497.6,76.9ZM506.7,80.4C506.2,80.4 505.8,80 505.8,79.5L505.8,69.4C505.8,68.9 506.2,68.5 506.7,68.5L506.9,68.5C507.1,68.5 507.4,68.6 507.5,68.8C507.7,69 507.8,69.2 507.8,69.4L507.8,69.5C508.1,69.1 508.5,68.8 508.9,68.6C509.3,68.4 509.8,68.3 510.2,68.3C511.1,68.3 512,68.7 512.6,69.4C513.2,70.3 513.6,71.4 513.5,72.6C513.6,73.7 513.2,74.8 512.6,75.7C512,76.4 511.2,76.9 510.3,76.8C509.4,76.8 508.5,76.4 507.9,75.8L507.9,79.2C507.9,79.4 507.8,79.7 507.6,79.8C507.4,80 507.2,80.1 507,80.1L506.7,80.4ZM507.9,71.5L507.9,73.9C507.9,74.3 508.1,74.7 508.4,75C508.7,75.3 509.2,75.5 509.7,75.5C510.2,75.5 510.7,75.3 511,74.8C511.4,74.2 511.5,73.5 511.5,72.8C511.5,71 510.9,70.1 509.7,70.1C509.2,70.1 508.8,70.3 508.4,70.6C508.1,70.8 507.9,71.2 507.9,71.5ZM516.8,76.9C516.3,76.9 515.9,76.5 515.9,76L515.9,66C515.9,65.8 516,65.5 516.2,65.4C516.4,65.2 516.6,65.1 516.8,65.1L517.2,65.1C517.4,65.1 517.7,65.2 517.8,65.4C518,65.6 518.1,65.8 518.1,66L518.1,76C518.1,76.5 517.7,76.9 517.2,76.9L516.8,76.9ZM523,77.1C522.3,77.1 521.7,76.9 521.2,76.4C520.2,75.3 520.2,73.6 521.3,72.6C521.4,72.5 521.4,72.5 521.5,72.4C522.5,71.8 523.6,71.6 524.7,71.6L525.4,71.6C525.5,71.6 525.5,71.6 525.5,71.5L525.5,71.4C525.5,71 525.4,70.7 525.2,70.4C524.8,70.2 524.4,70.1 524,70.1C523.2,70.1 522.5,70.2 521.8,70.4C521.6,70.5 521.4,70.4 521.3,70.3C521.1,70.2 521.1,70 521.1,69.8C521.1,69.6 521.2,69.3 521.3,69.1C521.4,68.9 521.6,68.8 521.9,68.8C522.6,68.6 523.4,68.5 524.2,68.5C525.2,68.4 526.2,68.7 527,69.2C527.6,69.9 527.9,70.8 527.8,71.7L527.8,76C527.8,76.2 527.7,76.5 527.5,76.6C527.3,76.8 527.1,76.9 526.9,76.9L526.7,76.9C526.2,76.9 525.8,76.5 525.8,76L525.8,75.8C525.1,76.6 524.1,77 523.1,76.9L523,77.1ZM524.8,73C523.3,73 522.5,73.5 522.5,74.4C522.5,74.7 522.6,75 522.8,75.2C523,75.4 523.3,75.5 523.6,75.5C524.1,75.5 524.7,75.3 525.1,74.9C525.5,74.5 525.7,73.9 525.7,73.4L525.7,73.1C525.7,73 525.7,73 525.6,73L524.8,73ZM531.3,67C531.1,67 530.8,66.9 530.7,66.7C530.5,66.5 530.4,66.3 530.4,66.1L530.4,66C530.4,65.5 530.8,65.1 531.3,65.1L531.7,65.1C531.9,65.1 532.2,65.2 532.3,65.4C532.5,65.6 532.6,65.8 532.6,66L532.6,66.1C532.6,66.6 532.2,67 531.7,67L531.3,67ZM531.3,77C531.1,77 530.8,76.9 530.7,76.7C530.5,76.5 530.4,76.3 530.4,76.1L530.4,69.4C530.4,69.2 530.5,68.9 530.7,68.8C530.9,68.6 531.1,68.5 531.3,68.5L531.7,68.5C532.2,68.5 532.6,68.9 532.6,69.4L532.6,75.8C532.6,76.3 532.2,76.7 531.7,76.7L531.3,77ZM536.3,77C536.1,77 535.8,76.9 535.7,76.7C535.5,76.5 535.4,76.3 535.4,76.1L535.4,69.4C535.4,69.2 535.5,68.9 535.7,68.8C535.9,68.6 536.1,68.5 536.3,68.5L536.5,68.5C536.7,68.5 537,68.6 537.1,68.8C537.3,69 537.4,69.2 537.4,69.4L537.4,69.5C538,68.8 538.9,68.3 539.9,68.3C540.7,68.2 541.5,68.5 542,69.1C542.5,69.9 542.7,70.9 542.7,71.8L542.7,75.8C542.7,76.3 542.3,76.7 541.8,76.7L541.5,76.7C541.3,76.7 541,76.6 540.9,76.4C540.7,76.2 540.6,76 540.6,75.8L540.6,72C540.7,71.4 540.5,70.9 540.3,70.4C540,70.1 539.6,69.9 539.2,70C538.3,70.1 537.5,70.8 537.4,71.7L537.4,75.8C537.4,76 537.3,76.3 537.1,76.4C536.9,76.6 536.7,76.7 536.5,76.7L536.3,77ZM548.8,77.1C547.6,77.2 546.5,76.8 545.6,76C544.8,75.1 544.4,74 544.5,72.8C544.4,71.7 544.8,70.5 545.5,69.6C546.3,68.8 547.3,68.4 548.4,68.5C550.7,68.5 551.9,69.8 552,72.5C552,72.7 551.9,73 551.7,73.1C551.5,73.3 551.3,73.4 551,73.3L546.7,73.3C546.6,73.3 546.6,73.3 546.6,73.4C546.6,74 546.9,74.5 547.3,74.9C547.8,75.3 548.4,75.4 549,75.4C549.5,75.4 550.1,75.3 550.6,75.2C550.8,75.1 551,75.2 551.1,75.3C551.3,75.4 551.4,75.6 551.3,75.8C551.3,76 551.2,76.3 551.1,76.4C551,76.6 550.8,76.7 550.5,76.7C549.9,76.7 549.3,76.7 548.7,76.6L548.8,77.1ZM548.4,70.1C547.9,70.1 547.5,70.2 547.2,70.5C546.9,70.9 546.7,71.4 546.7,71.9C546.7,72 546.7,72 546.8,72L549.9,72C550,72 550,72 550,71.9C550,70.4 549.5,69.7 548.5,69.7L548.4,70.1ZM556.7,77.1C555.8,77.1 554.9,76.7 554.4,76C553.7,75.1 553.4,74 553.5,72.9C553.4,71.8 553.7,70.7 554.4,69.7C555,69 555.9,68.6 556.8,68.6C557.7,68.6 558.5,69 559.2,69.6L559.2,65.8C559.2,65.6 559.3,65.3 559.5,65.2C559.7,65 559.9,64.9 560.1,64.9L560.4,64.9C560.6,64.9 560.9,65 561,65.2C561.2,65.4 561.3,65.6 561.3,65.8L561.3,75.8C561.3,76.3 560.9,76.7 560.4,76.7L560.2,76.7C560,76.7 559.7,76.6 559.6,76.4C559.4,76.2 559.3,76 559.3,75.8L559.3,75.7C558.7,76.4 557.8,76.9 556.8,76.9L556.7,77.1ZM557.4,70.2C556.2,70.2 555.6,71.1 555.6,72.9C555.6,73.6 555.7,74.3 556.1,74.9C556.4,75.3 556.9,75.6 557.4,75.6C557.9,75.6 558.3,75.4 558.7,75.1C559,74.8 559.2,74.4 559.2,74L559.2,71.6C559.2,71.2 559,70.8 558.7,70.5C558.4,70.2 557.9,70 557.5,70L557.4,70.2ZM565.5,73.5C565,73.5 564.6,73.1 564.6,72.6L564.4,66.4C564.4,66.2 564.5,65.9 564.6,65.8C564.8,65.6 565,65.5 565.2,65.5L566.1,65.5C566.3,65.5 566.6,65.6 566.7,65.8C566.9,66 567,66.2 566.9,66.4L566.7,72.6C566.7,73.1 566.3,73.5 565.8,73.5L565.5,73.5ZM565.9,74.7C566.4,74.7 566.8,75.1 566.8,75.6L566.8,76C566.8,76.2 566.7,76.5 566.5,76.6C566.3,76.8 566.1,76.9 565.9,76.9L565.4,76.9C565.2,76.9 564.9,76.8 564.8,76.6C564.6,76.4 564.5,76.2 564.5,76L564.5,75.6C564.5,75.1 564.9,74.7 565.4,74.7L565.9,74.7Z"
   style="fill:white;fill-rule:nonzero;" />
            <g
   id="word_mark">
                <path
   d="M348.3,27.6C347.6,27.6 346.9,27.3 346.3,26.8C345.2,25.8 345.2,24.1 346.2,23L346.3,22.9C346.8,22.4 347.5,22.1 348.3,22.1L364.7,22.1C365.4,22.1 366.1,22.4 366.7,22.9C367.8,23.9 367.8,25.6 366.8,26.7L366.7,26.8C366.2,27.3 365.5,27.6 364.7,27.6L348.3,27.6ZM348.3,55.4C347.6,55.4 346.9,55.1 346.3,54.6C345.2,53.6 345.2,51.9 346.2,50.8L346.3,50.7C346.8,50.2 347.5,49.9 348.3,49.9L364.7,49.9C365.4,49.9 366.1,50.2 366.7,50.7C367.8,51.7 367.8,53.4 366.8,54.5L366.7,54.6C366.2,55.1 365.5,55.4 364.7,55.4L348.3,55.4ZM348.3,41.5C347.6,41.5 346.9,41.2 346.3,40.7C345.2,39.7 345.2,38 346.2,36.9L346.3,36.8C346.8,36.3 347.5,36 348.3,36L361.2,36C361.9,36 362.6,36.3 363.2,36.8C364.3,37.8 364.3,39.5 363.3,40.6L363.2,40.7C362.7,41.2 362,41.5 361.2,41.5L348.3,41.5ZM382.7,34.7C379,34.7 377.1,37.4 377.1,42.9C377.1,45.6 377.6,47.7 378.6,49.1C379.5,50.4 381,51.2 382.7,51.1C384.1,51.1 385.5,50.6 386.6,49.6C387.6,48.8 388.2,47.5 388.2,46.2L388.2,39.6C388.2,38.3 387.6,37 386.6,36.2C385.6,35.2 384.2,34.7 382.7,34.7ZM380.8,55.9C378,55.9 375.3,54.6 373.7,52.4C371.8,50.1 370.8,46.9 370.8,42.9C370.8,38.8 371.7,35.5 373.5,33.3C375.2,31.1 377.9,29.8 380.8,29.9C383.5,29.9 386.1,31 388,32.9L388.1,32.9L388.1,22C388.1,20.5 389.3,19.3 390.9,19.2L391.9,19.2C393.4,19.2 394.6,20.5 394.6,22L394.6,52.7C394.6,54.2 393.4,55.4 391.8,55.5L391.3,55.5C390.6,55.5 389.8,55.2 389.3,54.7C388.8,54.2 388.5,53.5 388.5,52.7L388.5,52.4M388.5,52.3L388.4,52.3C386.5,54.6 383.8,55.9 380.8,55.9L388.5,52.3ZM409.4,55.9C406.6,55.9 404.5,55.1 403.2,53.6C401.9,52 401.3,49.4 401.3,45.7L401.3,33.1C401.3,31.6 402.5,30.4 404.1,30.3L404.9,30.3C405.6,30.3 406.3,30.6 406.8,31.1C407.3,31.6 407.6,32.3 407.6,33L407.6,45C407.6,47.2 407.9,48.8 408.5,49.7C409.2,50.6 410.4,51.1 411.6,51C413,51 414.3,50.4 415.3,49.3C416.4,48.4 417,47.1 417,45.6L417,33.1C417,31.6 418.2,30.4 419.8,30.3L420.8,30.3C421.5,30.3 422.2,30.6 422.7,31.1C423.2,31.6 423.5,32.3 423.5,33L423.5,52.6C423.5,53.3 423.2,54 422.7,54.5C422.2,55 421.5,55.3 420.8,55.3L420.2,55.3C419.5,55.3 418.7,55 418.2,54.5C417.7,54 417.4,53.3 417.4,52.5L417.4,52.2M409.4,55.9L417.2,52.3C415.2,54.6 412.4,55.9 409.4,55.9ZM440.8,55.9C436.8,55.9 433.7,54.8 431.6,52.6C429.5,50.4 428.4,47.2 428.4,42.9C428.4,38.7 429.4,35.5 431.5,33.2C433.6,31 436.5,29.8 440.4,29.8C442,29.8 443.7,29.9 445.3,30.1C446,30.2 446.7,30.5 447.1,31.1C447.6,31.7 447.8,32.4 447.8,33.1C447.8,33.7 447.5,34.3 447,34.6C446.5,35 445.9,35.1 445.3,35C443.9,34.7 442.5,34.6 441.1,34.6C439.4,34.5 437.7,35.2 436.6,36.5C435.6,37.8 435.1,39.8 435.1,42.7C435.1,45.6 435.6,47.7 436.7,48.9C438,50.3 439.8,51 441.6,50.8C443,50.8 444.4,50.7 445.7,50.4C446.7,50.1 447.8,50.7 448,51.8C448,52 448.1,52.1 448.1,52.3C448.1,53 447.9,53.7 447.4,54.3C447,54.9 446.3,55.2 445.6,55.4C444.1,55.7 442.5,55.9 440.8,55.9ZM466.4,43.4C461.8,43.4 459.5,44.8 459.5,47.6C459.5,48.5 459.8,49.4 460.4,50.1C461,50.8 461.8,51.1 462.7,51.1C464.4,51.2 466,50.6 467.1,49.4C468.3,48.1 468.9,46.4 468.8,44.7L468.8,43.8C468.8,43.6 468.7,43.4 468.5,43.4L466.4,43.4ZM461,55.9C459,56 457,55.2 455.6,53.8C454.2,52.3 453.4,50.3 453.5,48.2C453.4,45.6 454.6,43.2 456.7,41.7C458.8,40.2 462.1,39.4 466.5,39.4L468.5,39.4C468.7,39.4 468.9,39.3 468.9,39.1L468.9,38.6C469,37.5 468.6,36.3 467.8,35.5C466.7,34.8 465.4,34.5 464,34.6C461.7,34.7 459.4,35 457.1,35.6C456.6,35.8 456,35.7 455.5,35.3C455,35 454.8,34.4 454.8,33.8C454.8,33.1 455,32.4 455.5,31.8C455.9,31.2 456.5,30.8 457.2,30.7C459.5,30.2 461.8,29.9 464.1,29.9C468.2,29.9 471.1,30.6 472.7,32.1C474.3,33.6 475.2,36.2 475.2,39.9L475.2,52.7C475.2,53.4 474.9,54.1 474.4,54.6C473.9,55.1 473.2,55.4 472.5,55.4L472,55.4C471.3,55.4 470.5,55.1 470,54.6C469.5,54.1 469.1,53.4 469.1,52.6L469.1,52L469,52C467.1,54.6 464.1,56 461,55.9ZM480.7,36C480.1,36 479.5,35.8 479.1,35.3C478.7,34.9 478.4,34.3 478.4,33.6C478.4,32.3 479.4,31.3 480.7,31.3L483,31.3C483.2,31.3 483.4,31.2 483.4,31L483.4,24.9C483.4,24.2 483.7,23.5 484.2,23C484.7,22.5 485.4,22.2 486.1,22.2L487.1,22.2C488.6,22.2 489.8,23.4 489.9,25L489.9,31C489.9,31.2 490,31.4 490.2,31.4L495.8,31.4C496.4,31.4 497,31.6 497.5,32.1C498,32.5 498.2,33.1 498.2,33.7C498.2,35 497.1,36.1 495.8,36.1L490.3,36.1C490,36.1 489.9,36.2 489.9,36.5L489.9,46.3C489.9,48.4 490.1,49.7 490.6,50.3C491.1,50.9 492,51.2 493.4,51.2C494,51.2 494.6,51.2 495.1,51.1C495.7,51 496.3,51.2 496.8,51.5C497.3,51.8 497.5,52.4 497.5,53C497.5,53.7 497.3,54.4 496.8,54.9C496.4,55.4 495.8,55.8 495.1,55.8C493.7,55.9 492.6,56 491.9,56C488.8,56 486.6,55.3 485.3,54C484,52.7 483.4,50.3 483.4,46.8L483.4,36.4C483.4,36.2 483.3,36 483,36L480.7,36ZM505.3,55.4C503.8,55.4 502.6,54.2 502.5,52.6L502.5,33.1C502.5,31.6 503.7,30.4 505.3,30.3L506.5,30.3C507.2,30.3 507.9,30.6 508.4,31.1C508.9,31.6 509.2,32.3 509.2,33L509.2,52.6C509.2,54.1 508,55.3 506.4,55.4L505.3,55.4ZM505.3,25C503.8,25 502.6,23.8 502.5,22.2L502.5,22C502.5,20.5 503.7,19.3 505.3,19.2L506.5,19.2C508,19.2 509.2,20.4 509.2,22L509.2,22.3C509.2,23 508.9,23.7 508.4,24.2C507.9,24.7 507.2,25 506.5,25L505.3,25ZM531.6,36.5C529.6,34.1 526.1,33.8 523.8,35.8C523.5,36 523.3,36.2 523.1,36.5C522.2,37.8 521.7,40 521.7,42.8C521.7,45.6 522.2,47.8 523.1,49.1C525.1,51.5 528.6,51.8 530.9,49.8C531.2,49.6 531.4,49.4 531.6,49.1C532.6,47.8 533,45.6 533,42.8C533,40 532.6,37.9 531.6,36.5ZM536.3,52.5C534.2,54.8 531.2,55.9 527.3,55.9C523.4,55.9 520.4,54.8 518.3,52.5C516.2,50.2 515.1,47 515.1,42.9C515.1,38.8 516.2,35.5 518.3,33.3C520.4,31.1 523.4,29.9 527.3,29.9C531.2,29.9 534.2,31 536.3,33.3C538.4,35.6 539.5,38.8 539.5,42.9C539.5,47 538.5,50.3 536.3,52.5ZM547.3,55.5C545.8,55.5 544.6,54.3 544.5,52.7L544.5,33.1C544.5,31.6 545.7,30.4 547.3,30.3L547.9,30.3C548.6,30.3 549.4,30.6 549.9,31.1C550.4,31.6 550.7,32.3 550.7,33.1L550.7,33.4L550.8,33.4C552.7,31.1 555.5,29.8 558.5,29.8C561.4,29.8 563.6,30.6 564.9,32.3C566.2,34 566.9,36.7 566.9,40.6L566.9,52.6C566.9,54.1 565.7,55.3 564.1,55.4L563.3,55.4C562.6,55.4 561.9,55.1 561.4,54.6C560.9,54.1 560.6,53.4 560.6,52.7L560.6,41.1C560.6,38.7 560.3,37 559.7,36.1C558.9,35.1 557.6,34.6 556.4,34.8C555,34.8 553.7,35.4 552.7,36.5C551.7,37.4 551,38.8 551,40.2L551,52.7C551,54.2 549.8,55.4 548.2,55.5L547.3,55.5Z"
   style="fill:rgb(241,137,23);fill-rule:nonzero;"
   id="path1" />
                <path
   d="M102.8,30.3C102.8,25.8 106.4,22.1 110.9,22.1L122,22.1C123.5,22.2 124.7,23.5 124.6,25C124.5,26.4 123.4,27.5 122,27.6L111,27.6C109.5,27.6 108.3,28.8 108.3,30.3L108.3,47.3C108.3,48.8 109.5,50 111,50L122,50C123.5,50 124.7,51.2 124.7,52.7C124.7,54.2 123.5,55.4 122,55.4L111,55.4C106.5,55.4 102.8,51.7 102.8,47.2L102.8,30.3ZM144.2,36.5C142.2,34.1 138.7,33.8 136.4,35.8C136.1,36 135.9,36.3 135.7,36.5C134.8,37.8 134.3,40 134.3,42.8C134.3,45.6 134.8,47.8 135.7,49.1C137.7,51.5 141.2,51.8 143.5,49.8C143.8,49.6 144,49.3 144.2,49.1C145.1,47.8 145.6,45.6 145.6,42.8C145.6,40 145.2,37.9 144.2,36.5ZM148.9,52.5C146.8,54.8 143.8,55.9 139.9,55.9C136,55.9 133,54.8 130.9,52.5C128.8,50.2 127.7,47 127.7,42.9C127.7,38.8 128.8,35.5 130.9,33.3C133,31.1 136,29.9 139.9,29.9C143.8,29.9 146.8,31 148.9,33.3C151,35.6 152.1,38.8 152.1,42.9C152.1,47 151.1,50.3 148.9,52.5ZM159.8,55.5C159.1,55.5 158.4,55.2 157.9,54.7C157.4,54.2 157.1,53.5 157.1,52.8L157.1,33.1C157.1,32.4 157.4,31.7 157.9,31.2C158.4,30.7 159.1,30.4 159.8,30.4L160.5,30.4C161.2,30.4 161.9,30.7 162.4,31.2C162.9,31.7 163.2,32.4 163.3,33.1L163.3,33.4L163.4,33.4C165.3,31.1 167.4,29.9 169.8,29.9C171,29.8 172.2,30.1 173.3,30.7C174.3,31.4 175.1,32.4 175.6,33.6L175.8,33.6C177.8,31.1 180.1,29.9 182.7,29.9C185.3,29.9 187.3,30.6 188.5,32.1C189.7,33.6 190.3,36 190.3,39.6L190.3,52.8C190.3,53.5 190,54.2 189.5,54.7C189,55.2 188.3,55.5 187.6,55.5L186.8,55.5C185.3,55.4 184.2,54.2 184.1,52.7L184.1,40.5C184.1,38.2 183.9,36.6 183.4,35.9C182.8,35.1 181.8,34.7 180.8,34.8C179.8,34.9 178.9,35.3 178.3,36C177.6,36.6 177.1,37.4 177.1,38.3L177.1,52.8C177.1,53.5 176.8,54.2 176.3,54.7C175.8,55.2 175.1,55.5 174.4,55.5L173.6,55.5C172.9,55.5 172.2,55.2 171.7,54.7C171.2,54.2 170.9,53.5 170.9,52.8L170.9,40.5C170.9,38.2 170.7,36.6 170.2,35.9C169.6,35.1 168.6,34.6 167.6,34.8C166.6,34.9 165.7,35.3 165.1,36C164.4,36.6 163.9,37.4 163.9,38.3L163.9,52.8C163.9,54.3 162.6,55.5 161.1,55.6L159.8,55.5ZM203,39.6L203,46.2C203,47.5 203.6,48.8 204.7,49.6C205.8,50.6 207.1,51.1 208.6,51.1C210.2,51.2 211.8,50.4 212.7,49C213.7,47.6 214.2,45.6 214.2,42.9C214.2,37.4 212.4,34.7 208.6,34.7C207.2,34.7 205.8,35.2 204.7,36.2C203.6,37 203,38.3 203,39.6ZM199.4,66.1C197.9,66.1 196.7,64.9 196.6,63.3L196.6,33.1C196.6,31.6 197.8,30.4 199.4,30.3L200,30.3C201.5,30.3 202.8,31.5 202.9,33.1L202.9,33.4L203,33.4C204,32.3 205.2,31.3 206.5,30.6C207.8,30 209.1,29.8 210.5,29.8C213.3,29.7 216,31 217.7,33.2C219.5,35.5 220.4,38.7 220.4,42.8C220.4,46.8 219.5,50 217.6,52.3C215.9,54.5 213.3,55.8 210.5,55.8C207.8,55.8 205.1,54.8 203.2,52.8L203.1,52.8L203.1,63.2C203.1,63.9 202.8,64.6 202.3,65.1C201.8,65.6 201.1,65.9 200.4,65.9L199.4,65.9L199.4,66.1ZM233.5,55.9C230.7,55.9 228.6,55.1 227.3,53.6C226,52 225.4,49.4 225.4,45.7L225.4,33.1C225.4,31.6 226.6,30.4 228.2,30.3L229,30.3C230.5,30.3 231.7,31.5 231.8,33.1L231.8,45C231.8,47.2 232.1,48.8 232.7,49.7C233.4,50.6 234.6,51.1 235.8,51C237.2,51 238.5,50.4 239.5,49.3C240.6,48.4 241.2,47.1 241.2,45.7L241.2,33.1C241.2,31.6 242.4,30.4 244,30.3L245,30.3C245.7,30.3 246.4,30.6 246.9,31.1C247.4,31.6 247.7,32.3 247.7,33L247.7,52.6C247.7,53.3 247.4,54 246.9,54.5C246.4,55 245.7,55.3 245,55.3L244.4,55.3C243.7,55.3 242.9,55 242.4,54.5C241.9,54 241.6,53.3 241.6,52.5L241.6,52.2M241.4,52.3C241.4,52.3 241.3,52.3 241.4,52.3C239.4,54.6 236.6,55.9 233.6,55.9L241.4,52.3ZM254.1,36C253.5,36 252.9,35.8 252.5,35.3C252.1,34.9 251.8,34.3 251.8,33.6C251.8,33 252,32.4 252.5,32C252.9,31.6 253.5,31.3 254.1,31.3L256.4,31.3C256.6,31.3 256.8,31.2 256.8,31L256.8,24.9C256.8,24.2 257.1,23.5 257.6,23C258.1,22.5 258.8,22.2 259.5,22.2L260.5,22.2C262,22.2 263.2,23.4 263.3,25L263.3,31C263.3,31.2 263.4,31.4 263.6,31.4L269.2,31.4C269.8,31.4 270.4,31.6 270.9,32.1C271.4,32.5 271.6,33.1 271.6,33.7C271.6,35 270.5,36.1 269.2,36.1L263.7,36.1C263.4,36.1 263.3,36.2 263.3,36.5L263.3,46.3C263.3,48.4 263.5,49.7 264,50.3C264.5,50.9 265.4,51.2 266.8,51.2C267.4,51.2 268,51.2 268.5,51.1C269.1,51 269.7,51.2 270.2,51.5C270.7,51.8 270.9,52.4 270.9,53C270.9,53.7 270.7,54.4 270.2,54.9C269.8,55.4 269.2,55.8 268.5,55.8C267.1,55.9 266,56 265.3,56C262.2,56 260,55.3 258.7,54C257.4,52.7 256.8,50.3 256.8,46.8L256.8,36.4C256.8,36.2 256.7,36 256.4,36L254.1,36ZM278.7,55.4C277.2,55.4 276,54.2 275.9,52.6L275.9,33.1C275.9,31.6 277.1,30.4 278.7,30.3L280,30.3C280.7,30.3 281.4,30.6 281.9,31.1C282.4,31.6 282.7,32.3 282.7,33L282.7,52.6C282.7,54.1 281.5,55.3 279.9,55.4L278.7,55.4ZM278.7,25C277.2,25 276,23.8 275.9,22.2L275.9,22C275.9,20.5 277.1,19.3 278.7,19.2L280,19.2C280.7,19.2 281.4,19.5 281.9,20C282.4,20.5 282.7,21.2 282.7,21.9L282.7,22.2C282.7,22.9 282.4,23.6 281.9,24.1C281.4,24.6 280.7,24.9 280,24.9L278.7,24.9L278.7,25ZM291.7,55.4C290.2,55.4 289,54.2 288.9,52.6L288.9,33.1C288.9,32.4 289.2,31.7 289.7,31.2C290.2,30.7 290.9,30.4 291.6,30.4L292.2,30.4C292.9,30.4 293.7,30.7 294.2,31.2C294.7,31.7 295,32.4 295,33.2L295,33.5L295.1,33.5C297,31.2 299.8,29.9 302.8,29.9C305.7,29.9 307.9,30.7 309.2,32.4C310.5,34.1 311.2,36.8 311.2,40.7L311.2,52.7C311.2,54.2 310,55.4 308.4,55.5L307.6,55.5C306.9,55.5 306.2,55.2 305.7,54.7C305.2,54.2 304.9,53.5 304.9,52.8L304.9,41.1C304.9,38.7 304.6,37 304,36.1C303.2,35.1 301.9,34.6 300.6,34.8C297.8,35 295.5,37.3 295.2,40.1L295.2,52.7C295.2,54.2 294,55.4 292.4,55.5L291.7,55.4ZM328,34.7C324.5,34.7 322.7,37.3 322.7,42.4C322.7,45.1 323.2,47.1 324.1,48.4C325,49.7 326.4,50.4 328,50.4C329.4,50.4 330.8,49.9 331.7,48.9C332.7,48 333.3,46.7 333.3,45.3L333.3,40C333.3,38.6 332.8,37.2 331.7,36.2C330.8,35.2 329.4,34.7 328,34.7ZM326,55.2C323.3,55.3 320.6,54 319,51.8C317.2,49.5 316.3,46.4 316.3,42.4C316.3,38.4 317.2,35.3 318.9,33.1C320.6,30.9 323.3,29.7 326,29.8C327.4,29.8 328.7,30.1 330,30.6C331.3,31.3 332.5,32.2 333.4,33.4L333.5,33.4L333.5,33.1C333.5,32.3 333.8,31.6 334.4,31.1C334.9,30.6 335.7,30.3 336.4,30.3L336.9,30.3C337.6,30.3 338.3,30.6 338.8,31.1C339.3,31.6 339.6,32.3 339.6,33L339.6,53.5C339.6,62.2 335.3,66.5 326.6,66.5C325,66.5 323.3,66.4 321.7,66.1C320.9,66 320.2,65.6 319.7,65C319.2,64.4 318.9,63.6 318.9,62.9C318.9,62.3 319.2,61.7 319.7,61.4C320.2,61 320.9,60.9 321.5,61.1C323.1,61.5 324.7,61.7 326.3,61.7C328.7,61.7 330.4,61.1 331.5,59.8C332.6,58.6 333.1,56.5 333.1,53.7L333.1,52.2L333,52.2C331.3,54.1 328.7,55.2 326,55.2Z"
   style="fill:white;fill-rule:nonzero;"
   id="path2" />
            </g>
            <g
   id="brand_mark">
                <path
   d="m 33.2,62.6 h 24.6 c 4.1,0.2 7.3,3.6 7.2,7.7 -0.1,3.9 -3.3,7 -7.2,7.2 H 7.4 C 3.3,77.5 0,74.2 0,70.1 V 7.4 C 0,3.3 3.3,0 7.4,0 L 13.1,5.2 18.7,0 h 39.1 c 4.2,0.2 7.4,3.6 7.2,7.7 -0.1,3.9 -3.3,7 -7.2,7.2 H 32.3 L 26.6,20.1 21,14.9 h -0.5 c -4.8,0 -8.7,3.9 -8.8,8.7 0,3.1 1.7,6 4.4,7.6 -4.2,2.4 -5.6,7.7 -3.2,11.9 0.8,1.4 1.9,2.5 3.2,3.2 -4.2,2.4 -5.6,7.7 -3.2,11.9 1.5,2.6 4.2,4.2 7.1,4.4 l 6.6,6.1 z"
   style="display:inline;fill:#0065bd;fill-opacity:1"
   id="path3" />
                <path
   d="M71.9,47.5L33.2,47.5L26.6,53.5L20,47.5C18.4,47.6 17,48.3 15.9,49.4C13.4,51.9 13.4,56 15.9,58.5C17.1,59.7 18.7,60.4 20.4,60.4L21,60.4L26.7,65.6L32.4,60.4L71.9,60.4C73.6,60.4 75.2,59.7 76.4,58.5C78.9,56 78.9,51.9 76.3,49.4C75.2,48.2 73.6,47.5 71.9,47.5Z"
   style="fill:rgb(241,137,23);fill-rule:nonzero;"
   id="path4" />
                <path
   d="M60.1,32.4L33.2,32.4L26.6,38.4L20,32.4C16.5,32.7 13.8,35.8 14.1,39.3C14.4,42.6 17.1,45.2 20.4,45.2L21,45.2L26.7,50.4L32.4,45.2L60.2,45.2C63.7,45.2 66.6,42.3 66.6,38.8C66.5,35.2 63.7,32.4 60.1,32.4Z"
   style="fill:rgb(255,180,89);fill-rule:nonzero;"
   id="path5" />
                <path
   d="M71.9,17.2L33.2,17.2L26.6,23.3L20,17.3C18.5,17.4 17,18 15.9,19.1C13.4,21.6 13.4,25.7 15.9,28.2C17.1,29.4 18.7,30.1 20.4,30.1L21,30.1L26.7,35.3L32.4,30.1L71.9,30.1C75.4,30 78.2,27 78,23.5C77.9,20 75.2,17.3 71.9,17.2Z"
   style="fill:rgb(255,209,148);fill-rule:nonzero;"
   id="path6" />
            </g>
        </g>
    </g>
</svg>
